# xmcd CD database file
#
# Track frame offsets:
#	150
#	11328
#	36348
#	53312
#	70396
#	93635
#	112199
#	134727
#	162692
#	182219
#	205713
#	221523
#
# Disc length: 3173 seconds
#
# Revision: 0
# Processed by: cddbd v1.5.2PL0 Copyright (c) Steve Scherf et al.
# Submitted via: Feurio! 1.67 - http://www.feurio.com
#
DISCID=b30c630c
DTITLE=Bluesgangsters - Hell For Free
DYEAR=2011
DGENRE=Blues
TTITLE0=Friends
TTITLE1=Don't Look Back
TTITLE2=Bloody Lips
TTITLE3=Asshole
TTITLE4=Lost Dreams
TTITLE5=Hell For Free
TTITLE6=Loaded Gun
TTITLE7=Have You Ever
TTITLE8=Beggin' Hands
TTITLE9=I'm Not Born To Be Quiet
TTITLE10=The Outlaw
TTITLE11=The Poor Must Die
EXTD=
EXTT0=
EXTT1=
EXTT2=
EXTT3=
EXTT4=
EXTT5=
EXTT6=
EXTT7=
EXTT8=
EXTT9=
EXTT10=
EXTT11=
PLAYORDER=
